<?xml version="1.0" standalone="no"?>
<!DOCTYPE svg PUBLIC "-//W3C//DTD SVG 20010904//EN"
 "http://www.w3.org/TR/2001/REC-SVG-20010904/DTD/svg10.dtd">
<svg version="1.0" xmlns="http://www.w3.org/2000/svg"
 width="1088.000000pt" height="1088.000000pt" viewBox="0 0 1088.000000 1088.000000"
 preserveAspectRatio="xMidYMid meet">
<metadata>
Created by potrace 1.14, written by Peter Selinger 2001-2017
</metadata>
<g transform="translate(0.000000,1088.000000) scale(0.100000,-0.100000)"
fill="#000000" stroke="none">
<path d="M9670 9419 c-206 -24 -394 -45 -630 -69 -107 -11 -258 -27 -335 -35
-77 -8 -225 -24 -330 -35 -104 -11 -253 -27 -330 -35 -419 -44 -527 -56 -705
-75 -107 -11 -258 -27 -335 -35 -77 -8 -225 -24 -330 -35 -104 -11 -253 -27
-330 -35 -198 -21 -488 -52 -710 -75 -104 -11 -253 -27 -330 -35 -77 -8 -225
-24 -330 -35 -405 -43 -476 -50 -655 -69 -102 -11 -275 -30 -385 -41 -110 -11
-258 -27 -330 -35 -127 -14 -436 -47 -805 -85 -102 -11 -270 -29 -375 -40
-104 -11 -275 -29 -380 -40 -104 -11 -253 -27 -330 -35 -77 -9 -207 -22 -290
-30 -82 -9 -186 -20 -230 -25 -44 -5 -170 -19 -280 -30 -184 -19 -326 -34
-558 -61 -128 -14 -191 -41 -258 -110 -113 -115 -119 -178 -64 -689 19 -179
44 -413 55 -520 12 -107 27 -256 35 -330 8 -74 24 -218 35 -320 10 -102 31
-291 45 -420 13 -129 31 -298 39 -375 23 -220 74 -706 91 -860 8 -77 29 -268
45 -425 28 -268 41 -382 60 -542 16 -132 91 -242 203 -298 54 -27 70 -30 150
-30 50 0 174 9 276 20 102 11 247 27 321 35 74 8 221 23 325 35 383 41 763 81
875 91 63 5 214 21 335 35 121 13 351 38 510 54 160 16 326 34 370 40 44 5
130 14 190 19 111 10 286 28 535 56 74 8 180 19 235 25 55 6 199 22 320 35
243 28 455 50 615 65 58 5 166 16 240 25 74 8 203 22 285 30 83 8 209 22 280
30 72 8 200 21 285 30 85 9 232 25 325 36 94 10 325 35 515 54 190 20 406 42
480 50 74 9 225 24 335 35 110 11 281 29 380 40 99 12 308 34 465 50 157 16
364 38 460 49 96 11 236 25 310 31 74 6 153 16 175 21 22 4 63 9 90 9 77 1
200 26 253 51 64 31 138 108 168 173 36 79 39 154 15 371 -11 105 -30 278 -41
385 -11 107 -27 256 -35 330 -29 262 -93 866 -125 1180 -11 102 -28 268 -39
370 -11 102 -31 293 -45 425 -14 132 -32 303 -41 380 -8 77 -24 228 -35 335
-22 208 -45 420 -61 563 -20 178 -84 278 -220 342 -49 22 -66 25 -174 24 -66
-1 -190 -10 -275 -20z m-1160 -600 c202 -31 386 -99 542 -202 124 -81 291
-249 384 -387 81 -119 144 -230 144 -251 0 -12 -736 -453 -770 -461 -6 -2 -28
35 -49 82 -96 221 -248 359 -447 406 -106 25 -313 15 -419 -19 -238 -78 -412
-269 -489 -538 -72 -255 -74 -640 -5 -1009 99 -521 321 -828 659 -907 111 -26
329 -23 435 5 276 74 457 250 502 486 15 80 15 278 0 293 -7 6 -139 -6 -562
-51 -121 -13 -224 -20 -228 -16 -5 4 -19 111 -32 236 -14 126 -29 273 -35 327
-5 55 -8 102 -5 107 3 4 33 11 67 14 35 4 124 13 198 21 74 8 221 24 325 35
105 11 318 34 475 50 454 49 482 51 487 46 3 -2 11 -62 19 -133 14 -135 31
-297 64 -608 11 -104 29 -273 40 -375 23 -224 43 -412 71 -665 27 -252 34
-355 23 -355 -5 0 -52 -5 -104 -10 -52 -6 -182 -19 -289 -30 -107 -12 -197
-17 -201 -13 -4 4 -22 89 -39 188 -18 99 -35 198 -39 219 -4 22 -12 41 -17 42
-6 2 -31 -34 -57 -79 -213 -371 -579 -559 -1093 -559 -408 -1 -766 149 -1041
433 -312 324 -495 768 -576 1397 -30 236 -30 598 1 795 36 236 89 413 177 591
271 548 750 854 1419 907 117 9 372 2 465 -12z m-2986 -341 c2 -13 12 -97 21
-188 18 -185 47 -465 70 -675 28 -257 84 -788 105 -990 11 -110 27 -258 35
-330 8 -71 21 -197 30 -280 8 -82 22 -211 30 -285 17 -159 77 -725 106 -993
11 -103 17 -192 14 -197 -6 -10 -21 -12 -285 -39 -107 -11 -279 -30 -382 -41
-103 -11 -196 -20 -207 -20 -24 0 -24 0 -46 225 -15 151 -36 354 -70 670 -39
367 -56 529 -80 760 -14 138 -30 286 -35 330 -5 44 -19 170 -30 280 -11 110
-27 259 -35 330 -13 124 -23 212 -81 760 -13 132 -33 321 -44 420 -10 99 -16
183 -12 187 4 4 138 21 297 38 160 17 340 37 400 44 172 21 194 20 199 -6z
m-2434 -282 c432 -52 707 -267 835 -652 91 -278 84 -593 -20 -813 -94 -197
-240 -329 -450 -406 -80 -29 -95 -45 -42 -45 50 0 195 -28 267 -51 219 -72
389 -223 485 -433 220 -479 113 -1026 -254 -1295 -129 -94 -252 -150 -448
-205 -119 -33 -234 -51 -513 -81 -129 -13 -298 -31 -375 -40 -166 -18 -464
-49 -665 -70 -80 -9 -225 -24 -323 -35 -98 -11 -193 -20 -211 -20 l-33 0 -12
113 c-7 61 -19 177 -27 257 -8 80 -24 224 -34 320 -11 96 -29 265 -40 375 -11
110 -27 259 -35 330 -8 72 -28 263 -45 425 -17 162 -38 356 -46 430 -8 74 -23
223 -34 330 -12 107 -27 256 -35 330 -8 74 -30 286 -50 470 -19 184 -40 371
-45 415 -6 44 -10 100 -10 126 l0 46 113 12 c61 7 193 21 292 31 900 96 1182
126 1320 139 140 13 309 12 435 -3z"/>
<path d="M2270 7404 c-392 -42 -387 -41 -394 -59 -3 -9 -1 -50 4 -93 5 -42 24
-210 40 -372 39 -370 40 -377 56 -391 9 -8 50 -6 146 5 73 9 237 27 363 41
127 13 255 32 285 41 223 66 327 220 306 452 -16 173 -86 295 -205 356 -115
60 -203 63 -601 20z"/>
<path d="M2640 5814 c-288 -35 -473 -54 -513 -54 -28 0 -53 -7 -66 -17 -21
-18 -21 -19 -7 -143 8 -69 22 -190 30 -270 9 -80 23 -212 32 -295 9 -82 21
-156 27 -163 12 -15 -11 -17 492 38 222 24 373 46 412 58 228 72 333 273 278
533 -35 166 -125 269 -274 313 -67 20 -246 20 -411 0z"/>
<path d="M9545 4174 c-194 -34 -321 -92 -430 -196 -78 -74 -126 -146 -161
-244 -44 -120 -30 -304 32 -426 81 -159 236 -239 541 -278 235 -30 384 -59
422 -82 59 -37 80 -132 42 -194 -56 -92 -300 -129 -496 -77 -92 24 -213 84
-288 142 -38 29 -70 51 -71 49 -19 -24 -171 -328 -171 -343 0 -50 252 -188
425 -232 94 -25 123 -27 280 -27 145 0 190 4 260 21 355 89 540 293 544 598 2
217 -92 377 -269 461 -107 51 -144 59 -530 114 -177 26 -243 54 -264 116 -18
52 -8 106 27 145 42 47 126 71 264 77 101 3 128 1 190 -18 92 -28 124 -45 222
-115 76 -54 80 -56 96 -38 9 10 52 85 94 167 l78 148 -45 42 c-91 84 -247 157
-409 190 -95 20 -273 19 -383 0z"/>
<path d="M8380 4025 c-58 -7 -197 -23 -310 -35 -113 -11 -263 -27 -335 -35
-71 -8 -200 -21 -285 -30 -85 -9 -166 -20 -179 -26 -21 -9 -23 -14 -17 -52 9
-51 24 -194 76 -702 22 -214 45 -428 50 -475 6 -47 15 -128 20 -180 5 -52 16
-149 25 -215 8 -66 15 -139 15 -162 0 -76 -13 -76 520 -13 259 30 545 61 665
72 61 5 128 13 150 16 l40 7 -3 60 c-5 109 -33 300 -45 312 -9 8 -39 8 -122
-2 -60 -8 -195 -23 -300 -34 -104 -11 -253 -27 -329 -36 -77 -8 -143 -12 -147
-8 -5 7 -40 309 -39 349 0 7 48 16 128 23 70 7 180 19 244 27 64 8 139 14 167
14 65 0 148 18 154 33 6 16 -32 330 -41 339 -4 4 -88 -2 -187 -12 -380 -41
-497 -51 -503 -46 -10 10 -40 341 -32 350 5 4 30 10 57 13 26 3 125 13 218 23
94 10 259 27 369 36 109 10 205 23 213 29 12 9 12 32 -2 170 -23 225 -16 205
-78 204 -28 -1 -99 -7 -157 -14z"/>
<path d="M6640 3845 c-52 -7 -167 -21 -255 -30 -88 -10 -165 -22 -171 -27 -12
-9 -17 -31 -38 -173 -8 -49 -41 -250 -75 -445 -33 -195 -72 -436 -86 -535 -15
-99 -28 -181 -30 -183 -1 -2 -10 16 -19 40 -83 230 -136 369 -246 643 -201
502 -229 568 -243 577 -6 4 -23 6 -37 3 -14 -3 -115 -14 -225 -25 -376 -38
-361 -36 -369 -57 -4 -9 -2 -50 3 -92 6 -42 17 -148 26 -236 9 -88 22 -216 30
-285 8 -69 19 -179 25 -245 6 -66 15 -154 20 -195 5 -41 16 -140 25 -220 8
-80 20 -181 25 -225 5 -44 15 -133 21 -198 15 -146 19 -153 85 -139 27 6 110
16 184 22 74 7 139 14 144 17 9 6 5 64 -14 238 -5 50 -19 180 -30 290 -17 163
-61 525 -96 790 -4 28 -4 48 -1 45 5 -5 160 -373 250 -595 146 -361 291 -702
302 -714 12 -12 33 -12 147 2 74 10 150 17 170 17 19 0 40 6 46 13 6 7 19 56
27 108 16 96 103 564 129 699 9 41 25 129 36 195 12 66 30 163 40 215 10 52
21 113 25 135 6 33 9 37 15 20 5 -11 9 -51 9 -90 1 -38 8 -117 15 -175 8 -58
17 -148 21 -200 3 -52 12 -156 20 -230 27 -259 57 -535 64 -585 8 -58 -3 -55
161 -36 52 7 128 14 168 18 40 3 75 9 77 13 2 4 -2 63 -10 131 -7 68 -19 176
-25 239 -6 63 -18 174 -25 245 -8 72 -21 202 -30 290 -9 88 -22 213 -30 279
-8 65 -12 122 -9 127 3 5 0 26 -6 46 -5 21 -19 130 -30 243 -26 268 -21 250
-73 249 -23 -1 -85 -7 -137 -14z"/>
<path d="M3930 3555 c-8 -2 -114 -14 -235 -26 -121 -12 -226 -27 -233 -33 -7
-7 -26 -77 -42 -156 -42 -198 -68 -323 -85 -400 -8 -36 -23 -108 -34 -160 -11
-52 -41 -192 -66 -310 -25 -118 -68 -321 -95 -450 -27 -129 -56 -264 -64 -300
-21 -85 -20 -117 2 -128 11 -6 68 -3 157 9 77 10 163 18 191 19 82 0 82 1 119
225 24 145 38 202 50 211 9 7 57 15 108 19 93 7 319 30 392 41 31 5 45 2 61
-12 12 -11 51 -96 88 -191 37 -94 74 -177 81 -183 11 -9 43 -9 137 0 68 6 145
16 171 21 26 5 68 9 93 9 30 0 46 5 50 15 4 8 -61 167 -144 353 -83 185 -254
573 -382 862 -128 289 -238 535 -246 548 -13 20 -33 25 -74 17z m-70 -665 c16
-41 61 -156 99 -254 39 -99 69 -181 68 -183 -2 -1 -73 -10 -158 -18 -85 -9
-169 -18 -186 -21 -39 -7 -39 -13 -13 131 26 140 76 462 85 540 l7 59 34 -89
c19 -50 47 -124 64 -165z"/>
<path d="M1890 3364 c-217 -41 -306 -73 -416 -146 -223 -149 -354 -418 -354
-729 0 -221 49 -451 134 -624 88 -179 197 -290 357 -364 102 -48 169 -61 309
-61 248 0 429 82 531 242 l33 51 18 -98 c10 -54 22 -103 27 -108 6 -6 39 -6
88 1 43 6 103 14 133 17 90 9 87 -1 67 197 -9 95 -26 261 -38 368 -11 107 -26
248 -33 313 -8 81 -17 121 -26 127 -8 5 -33 7 -55 4 -22 -2 -130 -13 -240 -24
-326 -33 -457 -49 -463 -55 -9 -9 24 -305 35 -316 6 -6 71 -3 193 11 101 11
186 17 189 14 3 -3 6 -31 5 -63 -2 -112 -67 -207 -178 -258 -56 -26 -71 -28
-181 -28 -118 0 -121 1 -183 34 -139 76 -218 242 -244 513 -27 288 46 480 211
557 80 37 225 43 299 11 60 -26 120 -87 157 -159 l25 -51 68 34 c37 19 121 66
187 104 143 82 145 87 83 182 -90 139 -227 240 -382 282 -69 19 -299 33 -356
22z"/>
</g>
</svg>
